HIERARCHY
ROOT SpineBase
{
  OFFSET 0.000000 0.000000 0.000000
  CHANNELS 6 Xposition Yposition Zposition Zrotation Xrotation Yrotation
  JOINT SpineMid
  {
    OFFSET 0.000000 27.595106 0.000000
    CHANNELS 3 Zrotation Xrotation Yrotation
    JOINT SpineShoulder
    {
      OFFSET -0.217709 20.696174 -0.473092
      CHANNELS 3 Zrotation Xrotation Yrotation
      JOINT Neck
      {
        OFFSET -0.076211 6.879983 -0.431036
        CHANNELS 3 Zrotation Xrotation Yrotation
        JOINT Head
        {
          OFFSET 1.913292 13.403894 -2.330309
          CHANNELS 3 Zrotation Xrotation Yrotation
          End Site
          {
            OFFSET 0 0 0
          }
        }
      }
      JOINT ShoulderLeft
      {
        OFFSET -15.318415 1.108291 -3.595520
        CHANNELS 3 Zrotation Xrotation Yrotation
        JOINT ElbowLeft
        {
          OFFSET -5.747560 -19.273378 -4.518067
          CHANNELS 3 Zrotation Xrotation Yrotation
          JOINT WristLeft
          {
            OFFSET 1.223677 -24.055553 -8.562466
            CHANNELS 3 Zrotation Xrotation Yrotation
            JOINT HandLeft
            {
              OFFSET 0.265798 -7.269195 -2.409078
              CHANNELS 3 Zrotation Xrotation Yrotation
              JOINT HandTipLeft
              {
                OFFSET 1.674179 -6.371753 -0.871361
                CHANNELS 3 Zrotation Xrotation Yrotation
                End Site
                {
                  OFFSET 0 0 0
                }
              }
              JOINT ThumbLeft
              {
                OFFSET 2.893604 1.027371 0.035183
                CHANNELS 3 Zrotation Xrotation Yrotation
                End Site
                {
                  OFFSET 0 0 0
                }
              }
            }
          }
        }
      }
      JOINT ShoulderRight
      {
        OFFSET 14.783746 -1.071306 3.069920
        CHANNELS 3 Zrotation Xrotation Yrotation
        JOINT ElbowRight
        {
          OFFSET 5.628125 -23.795565 8.470952
          CHANNELS 3 Zrotation Xrotation Yrotation
          JOINT WristRight
          {
            OFFSET -4.019478 -19.086280 -5.596608
            CHANNELS 3 Zrotation Xrotation Yrotation
            JOINT HandRight
            {
              OFFSET 4.641423 -0.170405 -5.618452
              CHANNELS 3 Zrotation Xrotation Yrotation
              JOINT HandTipRight
              {
                OFFSET 0.370661 -1.686372 -2.596041
                CHANNELS 3 Zrotation Xrotation Yrotation
                End Site
                {
                  OFFSET 0 0 0
                }
              }
              JOINT ThumbRight
              {
                OFFSET -2.084047 2.847360 -4.722348
                CHANNELS 3 Zrotation Xrotation Yrotation
                End Site
                {
                  OFFSET 0 0 0
                }
              }
            }
          }
        }
      }
    }
  }
  JOINT HipLeft
  {
    OFFSET -7.317130 1.684377 -4.494641
    CHANNELS 3 Zrotation Xrotation Yrotation
    JOINT KneeLeft
    {
      OFFSET -1.840484 -28.859214 1.632907
      CHANNELS 3 Zrotation Xrotation Yrotation
      JOINT AnkleLeft
      {
        OFFSET -5.771116 -31.120415 -0.487332
        CHANNELS 3 Zrotation Xrotation Yrotation
        JOINT FootLeft
        {
          OFFSET 1.395433 -3.381010 -12.238582
          CHANNELS 3 Zrotation Xrotation Yrotation
          End Site
          {
            OFFSET 0 0 0
          }
        }
      }
    }
  }
  JOINT HipRight
  {
    OFFSET 7.990503 0.717132 -2.053895
    CHANNELS 3 Zrotation Xrotation Yrotation
    JOINT KneeRight
    {
      OFFSET 15.121012 -24.259119 -11.413213
      CHANNELS 3 Zrotation Xrotation Yrotation
      JOINT AnkleRight
      {
        OFFSET 7.655265 -36.044234 -0.983730
        CHANNELS 3 Zrotation Xrotation Yrotation
        JOINT FootRight
        {
          OFFSET 6.883138 -6.420036 -10.294993
          CHANNELS 3 Zrotation Xrotation Yrotation
          End Site
          {
            OFFSET 0 0 0
          }
        }
      }
    }
  }
}
MOTION
Frames: 5
Frame Time: 0.033333
-31.519627 72.268627 361.673194 -0.000000 0.000000 -9.059341 -0.000000 0.000000 9.059341 -0.000000 0.000000 0.000000 -0.000000 0.000000 0.000000 0.000000 0.000000 0.000000 -0.000000 0.000000 0.000000 -0.000000 0.000000 0.000000 -0.000000 0.000000 0.000000 -0.000000 0.000000 0.000000 0.000000 0.000000 0.000000 0.000000 0.000000 0.000000 -0.000000 0.000000 0.000000 -0.000000 0.000000 0.000000 -0.000000 0.000000 0.000000 -0.000000 0.000000 0.000000 0.000000 0.000000 0.000000 0.000000 0.000000 0.000000 -0.000000 0.000000 9.059341 -0.000000 0.000000 0.000000 -0.000000 0.000000 0.000000 0.000000 0.000000 0.000000 -0.000000 0.000000 9.059341 -0.000000 0.000000 0.000000 -0.000000 0.000000 0.000000 0.000000 0.000000 0.000000
-30.667959 72.233499 361.706611 1.232818 0.329383 -7.168139 -0.330768 -0.089618 7.187261 -0.021459 0.020686 0.034389 2.252439 2.592097 0.007101 0.000000 0.000000 0.000000 -0.671839 -2.801959 0.647247 -3.202071 0.934585 0.389158 -0.756013 -2.096155 0.057946 -1.448670 3.211939 -0.334231 0.000000 0.000000 0.000000 0.000000 0.000000 0.000000 1.528315 3.399431 1.615371 2.232197 -4.327171 -2.778801 -10.385793 -7.055934 5.398465 2.703902 -13.757135 -7.434190 0.000000 0.000000 0.000000 0.000000 0.000000 0.000000 -3.386350 0.330932 6.969964 2.089711 -1.072691 0.206360 -0.103149 4.320440 1.902072 0.000000 0.000000 0.000000 -7.227446 -5.470245 7.353876 3.024625 1.551668 -1.033939 0.520683 -0.314970 2.340822 0.000000 0.000000 0.000000
-29.933811 72.176059 361.668333 2.043412 0.712466 -5.362783 -0.684160 -0.138850 5.383814 -0.080395 0.051331 0.048580 4.392884 4.744219 -0.088528 0.000000 0.000000 0.000000 -1.159550 -5.399651 1.303233 -5.918873 1.794349 0.894711 -1.449686 -3.990069 -0.010094 -2.761437 6.206770 -0.281099 0.000000 0.000000 0.000000 0.000000 0.000000 0.000000 2.644871 6.514927 2.845481 3.775656 -8.076782 -4.597987 -19.636980 -17.049031 11.199129 5.207594 -15.349746 -15.650525 0.000000 0.000000 0.000000 0.000000 0.000000 0.000000 -6.036356 0.735779 4.980503 3.758593 -3.228114 0.642614 -0.214662 8.203648 3.367907 0.000000 0.000000 0.000000 -13.676344 -10.017818 5.094090 5.293015 3.137886 -1.898176 1.038860 -0.558160 5.364023 0.000000 0.000000 0.000000
-29.317182 72.096306 361.558360 2.445315 1.148977 -3.668386 -1.053996 -0.147822 3.676457 -0.172280 0.091893 0.043341 6.433680 6.483412 -0.223979 0.000000 0.000000 0.000000 -1.472369 -7.794332 1.944052 -8.136177 2.590783 1.452350 -2.036107 -5.608336 -0.184221 -3.868394 8.874365 0.048544 0.000000 0.000000 0.000000 0.000000 0.000000 0.000000 3.411617 9.375819 3.799434 4.785918 -11.187974 -5.757586 -27.204944 -29.116822 17.124629 8.514056 -11.293025 -24.705216 0.000000 0.000000 0.000000 0.000000 0.000000 0.000000 -7.935693 1.111300 3.126306 5.354396 -4.590353 0.955407 -0.695795 10.142212 4.881281 0.000000 0.000000 0.000000 -19.368682 -13.756122 2.480588 6.912742 4.824553 -2.497608 1.664253 -0.512238 9.162466 0.000000 0.000000 0.000000
-28.818073 71.994240 361.376692 2.449385 1.639191 -2.103920 -1.437374 -0.117390 2.087796 -0.295356 0.143239 0.019155 8.392217 7.843441 -0.352844 0.000000 0.000000 0.000000 -1.609194 -9.994596 2.552119 -9.850505 3.344992 2.007641 -2.479005 -6.898628 -0.434735 -4.711534 11.136322 0.521468 0.000000 0.000000 0.000000 0.000000 0.000000 0.000000 3.860050 12.028266 4.560120 5.365300 -13.666537 -6.466040 -32.263563 -41.310536 23.080417 12.343568 -5.629857 -33.760239 0.000000 0.000000 0.000000 0.000000 0.000000 0.000000 -9.082380 1.360847 1.427858 6.720613 -5.767582 1.246598 -1.383476 10.909673 6.427787 0.000000 0.000000 0.000000 -24.342917 -16.853343 -0.352311 8.022150 6.689866 -2.767495 2.497475 0.074686 13.769105 0.000000 0.000000 0.000000
